Coordinates
version=1
nRows=19
nColumns=24
inDegrees=yes

Units are S.I. units (second, meters, Newtons, ...)
Angles are in degrees.

endheader
time	pelvis_tilt	pelvis_list	pelvis_rotation	pelvis_tx	pelvis_ty	pelvis_tz	hip_flexion_r	hip_adduction_r	hip_rotation_r	knee_angle_r	ankle_angle_r	subtalar_angle_r	mtp_angle_r	hip_flexion_l	hip_adduction_l	hip_rotation_l	knee_angle_l	ankle_angle_l	subtalar_angle_l	mtp_angle_l	lumbar_extension	lumbar_bending	lumbar_rotation
      1.32900000	     -4.04699930	      5.32001431	      0.69558914	      0.21727040	      0.99561816	      0.31973591	     21.69312226	     -6.88547499	     -2.06478324	    -67.76750262	     -5.82385510	     -8.81550301	      4.62108533	     10.92205309	     10.44801565	      4.67293181	     -8.91818865	     -1.29781679	    -13.66256396	     -1.83846474	      1.35329156	     -3.49020391	      2.37124853
      1.33316667	     -3.95193841	      5.24243013	      0.78268824	      0.22234294	      0.99628903	      0.31953127	     22.14390443	     -6.81958717	     -2.05793632	    -67.55764625	     -5.03693764	     -9.17733028	      4.55603871	     10.35381115	     10.38739045	      4.89334359	     -8.67757962	     -1.16591664	    -13.69868601	     -1.86364820	      1.21485088	     -3.40348799	      2.22925973
      1.33733333	     -3.88141032	      5.14706020	      0.88247251	      0.22741544	      0.99689291	      0.31932494	     22.60059954	     -6.74092772	     -2.07530172	    -67.28409199	     -4.25615683	     -9.46813823	      4.50927871	      9.82358661	     10.30507930	      5.10610327	     -8.46264316	     -1.00560907	    -13.71234877	     -1.88259897	      1.13101517	     -3.31140286	      2.13543373
      1.34150000	     -3.77720784	      5.08022067	      0.95868642	      0.23247200	      0.99751045	      0.31914034	     23.02083511	     -6.68464805	     -2.06407497	    -66.97324979	     -3.52951358	     -9.85848629	      4.39726923	      9.24197271	     10.24799839	      5.32379400	     -8.20892668	     -0.88204201	    -13.76742320	     -1.92854186	      0.98124047	     -3.24478206	      1.96146774
      1.34566667	     -3.69601124	      4.98941026	      1.04873722	      0.23750390	      0.99807767	      0.31893970	     23.44797262	     -6.60906015	     -2.07634815	    -66.60350415	     -2.79460676	    -10.15708159	      4.30173315	      8.70389982	     10.16370656	      5.52853369	     -7.99220093	     -0.72522106	    -13.77483846	     -1.96866686	      0.86085563	     -3.12548821	      1.85928502
      1.34983333	     -3.58945526	      4.89815328	      1.14475848	      0.24255243	      0.99866673	      0.31874725	     23.82267946	     -6.53231407	     -2.09927205	    -66.16540378	     -2.12239008	    -10.49684678	      4.07878912	      8.12462633	     10.07543957	      5.76065472	     -7.74719141	     -0.61150424	    -13.80838695	     -2.06458961	      0.71822177	     -3.02917093	      1.70101203
      1.35400000	     -3.52738934	      4.81130155	      1.23099661	      0.24754919	      0.99911863	      0.31855715	     24.25025564	     -6.46234903	     -2.11275072	    -65.70601415	     -1.40295691	    -10.70155215	      4.02888181	      7.62712929	      9.98870910	      5.92833345	     -7.56470969	     -0.40519803	    -13.77657311	     -2.08509507	      0.62800263	     -2.91996931	      1.66595754
      1.35816667	     -3.41577888	      4.73685856	      1.30352238	      0.25257817	      0.99963528	      0.31841353	     24.60293218	     -6.39351882	     -2.11321919	    -65.18334068	     -0.75272319	    -11.04790412	      3.89062689	      7.05370491	      9.90649781	      6.08797868	     -7.33434990	     -0.24085412	    -13.75085129	     -2.14298587	      0.48008109	     -2.84964664	      1.52970076
      1.36233333	     -3.34472949	      4.64595984	      1.39850101	      0.25756443	      1.00005858	      0.31824113	     24.98309256	     -6.31650479	     -2.13867322	    -64.61121956	     -0.09527568	    -11.25871960	      3.82233375	      6.54760403	      9.80869446	      6.26057455	     -7.14972790	     -0.06155373	    -13.71320643	     -2.17123610	      0.37462182	     -2.74648950	      1.47224072
      1.36650000	     -3.21852605	      4.58116648	      1.46323214	      0.26257000	      1.00052396	      0.31810815	     25.29467799	     -6.25914518	     -2.14225735	    -63.99561883	      0.49736150	    -11.55778895	      3.67968971	      5.96012241	      9.73015105	      6.40509360	     -6.91497199	      0.10976553	    -13.67471256	     -2.23000208	      0.20766830	     -2.67417953	      1.33977900
      1.37066667	     -3.17460169	      4.48904208	      1.55787626	      0.26752109	      1.00083530	      0.31794710	     25.67809698	     -6.17966486	     -2.16975477	    -63.33132215	      1.09002451	    -11.73917462	      3.60681722	      5.49432589	      9.62605381	      6.56701749	     -6.74386413	      0.29714098	    -13.62927689	     -2.25881410	      0.12679468	     -2.57205614	      1.28578024
      1.37483333	     -3.08254643	      4.42064918	      1.63437457	      0.27249229	      1.00119315	      0.31782222	     25.99414324	     -6.11900948	     -2.18386553	    -62.61932820	      1.65204203	    -11.95249837	      3.52394415	      4.96467995	      9.53964092	      6.70392776	     -6.54742828	      0.48138648	    -13.57117777	     -2.29086339	      0.00132077	     -2.49810581	      1.20312507
      1.37900000	     -2.95354114	      4.36103379	      1.69732196	      0.27747353	      1.00156561	      0.31771059	     26.25626566	     -6.06439714	     -2.19540975	    -61.86180195	      2.14585594	    -12.19969230	      3.35783469	      4.38153908	      9.45793174	      6.82318706	     -6.31951777	      0.66631254	    -13.50403952	     -2.35531532	     -0.17725844	     -2.42838254	      1.06612761
      1.38316667	     -2.91123204	      4.28275864	      1.78581326	      0.28240240	      1.00177650	      0.31757851	     26.59517771	     -5.99546699	     -2.22159645	    -61.05797135	      2.64289629	    -12.33375839	      3.27085786	      3.92743010	      9.36081677	      6.96126101	     -6.16095467	      0.85960176	    -13.44780466	     -2.38708550	     -0.24958625	     -2.34165670	      1.01675834
      1.38733333	     -2.84864548	      4.23002498	      1.86292840	      0.28733542	      1.00198412	      0.31746702	     26.90153993	     -5.95131038	     -2.24126361	    -60.21917395	      3.10863839	    -12.48344698	      3.18459410	      3.43883994	      9.28642958	      7.08659139	     -5.97388771	      1.04995867	    -13.38297129	     -2.41749754	     -0.35109089	     -2.28364143	      0.94505033
      1.39150000	     -2.73877752	      4.18643671	      1.92181324	      0.29227544	      1.00221721	      0.31738870	     27.14131456	     -5.90712030	     -2.24848702	    -59.33376541	      3.49035140	    -12.65178900	      2.97222502	      2.88904705	      9.21577324	      7.19142102	     -5.76256479	      1.23452728	    -13.29811359	     -2.49367171	     -0.52227868	     -2.23844992	      0.80919517
      1.39566667	     -2.71167933	      4.12212602	      2.00922286	      0.29719683	      1.00230759	      0.31726820	     27.44801369	     -5.85614317	     -2.29013886	    -58.40199581	      3.89188944	    -12.73959628	      2.88232727	      2.45793252	      9.12925529	      7.30671881	     -5.61213133	      1.43536608	    -13.25074713	     -2.52278557	     -0.56925087	     -2.16177609	      0.77025638
      1.39983333	     -2.65093512	      4.08094156	      2.08266280	      0.30212128	      1.00241417	      0.31717632	     27.70533053	     -5.82291652	     -2.31960795	    -57.43210910	      4.24800444	    -12.83901545	      2.78546347	      1.97768049	      9.06244906	      7.41479514	     -5.43290658	      1.62484314	    -13.18726653	     -2.55311445	     -0.67199261	     -2.11654496	      0.70100369
      1.40400000	     -2.59748460	      4.03855647	      2.15560678	      0.30703374	      1.00247320	      0.31708974	     27.95332022	     -5.78656166	     -2.35124291	    -56.41889395	      4.55466857	    -12.91678097	      2.69547770	      1.50918193	      8.99382299	      7.52473255	     -5.25972353	      1.81341033	    -13.12642666	     -2.57981497	     -0.76496657	     -2.06940409	      0.63195789
